<svg xmlns="http://www.w3.org/2000/svg" viewBox="0 0 64 64">
  <defs>
    <linearGradient id="bg" x1="0" y1="0" x2="1" y2="1">
      <stop offset="0%" stop-color="#0f172a" />
      <stop offset="100%" stop-color="#1e293b" />
    </linearGradient>
    <linearGradient id="nodeA" x1="0" y1="0" x2="1" y2="1">
      <stop offset="0%" stop-color="#22d3ee" />
      <stop offset="100%" stop-color="#0284c7" />
    </linearGradient>
    <linearGradient id="nodeB" x1="0" y1="0" x2="1" y2="1">
      <stop offset="0%" stop-color="#fbbf24" />
      <stop offset="100%" stop-color="#f97316" />
    </linearGradient>
    <linearGradient id="nodeC" x1="0" y1="0" x2="1" y2="1">
      <stop offset="0%" stop-color="#f472b6" />
      <stop offset="100%" stop-color="#db2777" />
    </linearGradient>
    <linearGradient id="nodeD" x1="0" y1="0" x2="1" y2="1">
      <stop offset="0%" stop-color="#86efac" />
      <stop offset="100%" stop-color="#16a34a" />
    </linearGradient>
  </defs>

  <rect x="2" y="2" width="60" height="60" rx="16" fill="url(#bg)" />

  <g fill="none" stroke-linecap="round" opacity="0.95">
    <path d="M18 20 L32 14 L47 24 L41 40 L22 44 Z" stroke="#67e8f9" stroke-width="2.6" />
    <path d="M18 20 L41 40" stroke="#fcd34d" stroke-width="2.2" />
    <path d="M32 14 L22 44" stroke="#f9a8d4" stroke-width="2.2" />
    <path d="M47 24 L22 44" stroke="#86efac" stroke-width="2.2" />
  </g>

  <circle cx="18" cy="20" r="5.2" fill="url(#nodeA)" />
  <circle cx="32" cy="14" r="5.2" fill="url(#nodeB)" />
  <circle cx="47" cy="24" r="5.2" fill="url(#nodeC)" />
  <circle cx="41" cy="40" r="5.2" fill="url(#nodeD)" />
  <circle cx="22" cy="44" r="5.2" fill="#a78bfa" />

  <circle cx="22" cy="44" r="2.1" fill="#ede9fe" />
  <circle cx="18" cy="20" r="2.1" fill="#cffafe" />
  <circle cx="32" cy="14" r="2.1" fill="#fef3c7" />
  <circle cx="47" cy="24" r="2.1" fill="#fce7f3" />
  <circle cx="41" cy="40" r="2.1" fill="#dcfce7" />
</svg>
